<mxfile host="app.diagrams.net" modified="2023-02-16T04:00:48.525Z" agent="5.0 (Windows NT 10.0; Win64; x64) AppleWebKit/537.36 (KHTML, like Gecko) Chrome/109.0.0.0 Safari/537.36" etag="7uk1dCku-1meD5HH-Iuj" version="20.8.15" type="github">
  <diagram id="ZWjpy-Ys42JUu3wDJAln" name="第 1 页">
    <mxGraphModel dx="1195" dy="637" grid="1" gridSize="10" guides="1" tooltips="1" connect="1" arrows="1" fold="1" page="1" pageScale="1" pageWidth="827" pageHeight="1169" background="none" math="0" shadow="0">
      <root>
        <mxCell id="0" />
        <mxCell id="1" parent="0" />
        <mxCell id="qJhknRZ8q3AHo7k7cmSd-1" value="Mindmap" style="swimlane;startSize=20;horizontal=1;containerType=tree;" parent="1" vertex="1">
          <mxGeometry y="111" width="970" height="520" as="geometry" />
        </mxCell>
        <mxCell id="qJhknRZ8q3AHo7k7cmSd-2" value="" style="edgeStyle=entityRelationEdgeStyle;startArrow=none;endArrow=none;segment=10;curved=1;sourcePerimeterSpacing=0;targetPerimeterSpacing=0;rounded=0;" parent="qJhknRZ8q3AHo7k7cmSd-1" source="qJhknRZ8q3AHo7k7cmSd-6" target="qJhknRZ8q3AHo7k7cmSd-7" edge="1">
          <mxGeometry relative="1" as="geometry" />
        </mxCell>
        <mxCell id="qJhknRZ8q3AHo7k7cmSd-3" value="" style="edgeStyle=entityRelationEdgeStyle;startArrow=none;endArrow=none;segment=10;curved=1;sourcePerimeterSpacing=0;targetPerimeterSpacing=0;rounded=0;" parent="qJhknRZ8q3AHo7k7cmSd-1" source="qJhknRZ8q3AHo7k7cmSd-6" target="qJhknRZ8q3AHo7k7cmSd-8" edge="1">
          <mxGeometry relative="1" as="geometry" />
        </mxCell>
        <mxCell id="qJhknRZ8q3AHo7k7cmSd-4" value="" style="edgeStyle=entityRelationEdgeStyle;startArrow=none;endArrow=none;segment=10;curved=1;sourcePerimeterSpacing=0;targetPerimeterSpacing=0;rounded=0;" parent="qJhknRZ8q3AHo7k7cmSd-1" source="qJhknRZ8q3AHo7k7cmSd-6" target="qJhknRZ8q3AHo7k7cmSd-9" edge="1">
          <mxGeometry relative="1" as="geometry" />
        </mxCell>
        <mxCell id="qJhknRZ8q3AHo7k7cmSd-5" value="" style="edgeStyle=entityRelationEdgeStyle;startArrow=none;endArrow=none;segment=10;curved=1;sourcePerimeterSpacing=0;targetPerimeterSpacing=0;rounded=0;" parent="qJhknRZ8q3AHo7k7cmSd-1" source="qJhknRZ8q3AHo7k7cmSd-6" target="qJhknRZ8q3AHo7k7cmSd-10" edge="1">
          <mxGeometry relative="1" as="geometry" />
        </mxCell>
        <mxCell id="qJhknRZ8q3AHo7k7cmSd-6" value="重构&lt;span style=&quot;white-space: pre;&quot;&gt; &lt;/span&gt;" style="ellipse;whiteSpace=wrap;html=1;align=center;treeFolding=1;treeMoving=1;newEdgeStyle={&quot;edgeStyle&quot;:&quot;entityRelationEdgeStyle&quot;,&quot;startArrow&quot;:&quot;none&quot;,&quot;endArrow&quot;:&quot;none&quot;,&quot;segment&quot;:10,&quot;curved&quot;:1,&quot;sourcePerimeterSpacing&quot;:0,&quot;targetPerimeterSpacing&quot;:0};" parent="qJhknRZ8q3AHo7k7cmSd-1" vertex="1">
          <mxGeometry x="160" y="60" width="100" height="40" as="geometry" />
        </mxCell>
        <mxCell id="qJhknRZ8q3AHo7k7cmSd-7" value="Topic" style="whiteSpace=wrap;html=1;rounded=1;arcSize=50;align=center;verticalAlign=middle;strokeWidth=1;autosize=1;spacing=4;treeFolding=1;treeMoving=1;newEdgeStyle={&quot;edgeStyle&quot;:&quot;entityRelationEdgeStyle&quot;,&quot;startArrow&quot;:&quot;none&quot;,&quot;endArrow&quot;:&quot;none&quot;,&quot;segment&quot;:10,&quot;curved&quot;:1,&quot;sourcePerimeterSpacing&quot;:0,&quot;targetPerimeterSpacing&quot;:0};fillColor=#008a00;strokeColor=#005700;fontColor=#ffffff;" parent="qJhknRZ8q3AHo7k7cmSd-1" vertex="1">
          <mxGeometry x="320" y="40" width="80" height="20" as="geometry" />
        </mxCell>
        <mxCell id="qJhknRZ8q3AHo7k7cmSd-8" value="有哪些重构的方法" style="whiteSpace=wrap;html=1;shape=partialRectangle;top=0;left=0;bottom=1;right=0;points=[[0,1],[1,1]];fillColor=none;align=center;verticalAlign=bottom;routingCenterY=0.5;snapToPoint=1;autosize=1;treeFolding=1;treeMoving=1;newEdgeStyle={&quot;edgeStyle&quot;:&quot;entityRelationEdgeStyle&quot;,&quot;startArrow&quot;:&quot;none&quot;,&quot;endArrow&quot;:&quot;none&quot;,&quot;segment&quot;:10,&quot;curved&quot;:1,&quot;sourcePerimeterSpacing&quot;:0,&quot;targetPerimeterSpacing&quot;:0};" parent="qJhknRZ8q3AHo7k7cmSd-1" vertex="1">
          <mxGeometry x="286" y="76" width="140" height="30" as="geometry" />
        </mxCell>
        <mxCell id="qJhknRZ8q3AHo7k7cmSd-9" value="Topic" style="whiteSpace=wrap;html=1;rounded=1;arcSize=50;align=center;verticalAlign=middle;strokeWidth=1;autosize=1;spacing=4;treeFolding=1;treeMoving=1;newEdgeStyle={&quot;edgeStyle&quot;:&quot;entityRelationEdgeStyle&quot;,&quot;startArrow&quot;:&quot;none&quot;,&quot;endArrow&quot;:&quot;none&quot;,&quot;segment&quot;:10,&quot;curved&quot;:1,&quot;sourcePerimeterSpacing&quot;:0,&quot;targetPerimeterSpacing&quot;:0};" parent="qJhknRZ8q3AHo7k7cmSd-1" vertex="1">
          <mxGeometry x="20" y="40" width="80" height="20" as="geometry" />
        </mxCell>
        <mxCell id="qJhknRZ8q3AHo7k7cmSd-10" value="Branch" style="whiteSpace=wrap;html=1;shape=partialRectangle;top=0;left=0;bottom=1;right=0;points=[[0,1],[1,1]];fillColor=none;align=center;verticalAlign=bottom;routingCenterY=0.5;snapToPoint=1;autosize=1;treeFolding=1;treeMoving=1;newEdgeStyle={&quot;edgeStyle&quot;:&quot;entityRelationEdgeStyle&quot;,&quot;startArrow&quot;:&quot;none&quot;,&quot;endArrow&quot;:&quot;none&quot;,&quot;segment&quot;:10,&quot;curved&quot;:1,&quot;sourcePerimeterSpacing&quot;:0,&quot;targetPerimeterSpacing&quot;:0};" parent="qJhknRZ8q3AHo7k7cmSd-1" vertex="1">
          <mxGeometry x="20" y="80" width="72" height="26" as="geometry" />
        </mxCell>
        <mxCell id="qJhknRZ8q3AHo7k7cmSd-11" value="" style="edgeStyle=entityRelationEdgeStyle;startArrow=none;endArrow=none;segment=10;curved=1;sourcePerimeterSpacing=0;targetPerimeterSpacing=0;rounded=0;" parent="qJhknRZ8q3AHo7k7cmSd-1" source="qJhknRZ8q3AHo7k7cmSd-6" target="qJhknRZ8q3AHo7k7cmSd-12" edge="1">
          <mxGeometry relative="1" as="geometry">
            <mxPoint x="260" y="190" as="sourcePoint" />
          </mxGeometry>
        </mxCell>
        <mxCell id="qJhknRZ8q3AHo7k7cmSd-12" value="有哪些重构信号" style="whiteSpace=wrap;html=1;shape=partialRectangle;top=0;left=0;bottom=1;right=0;points=[[0,1],[1,1]];fillColor=none;align=center;verticalAlign=bottom;routingCenterY=0.5;snapToPoint=1;autosize=1;treeFolding=1;treeMoving=1;newEdgeStyle={&quot;edgeStyle&quot;:&quot;entityRelationEdgeStyle&quot;,&quot;startArrow&quot;:&quot;none&quot;,&quot;endArrow&quot;:&quot;none&quot;,&quot;segment&quot;:10,&quot;curved&quot;:1,&quot;sourcePerimeterSpacing&quot;:0,&quot;targetPerimeterSpacing&quot;:0};" parent="qJhknRZ8q3AHo7k7cmSd-1" vertex="1">
          <mxGeometry x="296" y="116" width="120" height="30" as="geometry" />
        </mxCell>
        <mxCell id="qJhknRZ8q3AHo7k7cmSd-13" value="" style="edgeStyle=entityRelationEdgeStyle;startArrow=none;endArrow=none;segment=10;curved=1;sourcePerimeterSpacing=0;targetPerimeterSpacing=0;rounded=0;" parent="qJhknRZ8q3AHo7k7cmSd-1" source="qJhknRZ8q3AHo7k7cmSd-12" target="qJhknRZ8q3AHo7k7cmSd-14" edge="1">
          <mxGeometry relative="1" as="geometry">
            <mxPoint x="260" y="190" as="sourcePoint" />
          </mxGeometry>
        </mxCell>
        <mxCell id="qJhknRZ8q3AHo7k7cmSd-14" value="过大的类" style="whiteSpace=wrap;html=1;shape=partialRectangle;top=0;left=0;bottom=1;right=0;points=[[0,1],[1,1]];fillColor=none;align=center;verticalAlign=bottom;routingCenterY=0.5;snapToPoint=1;autosize=1;treeFolding=1;treeMoving=1;newEdgeStyle={&quot;edgeStyle&quot;:&quot;entityRelationEdgeStyle&quot;,&quot;startArrow&quot;:&quot;none&quot;,&quot;endArrow&quot;:&quot;none&quot;,&quot;segment&quot;:10,&quot;curved&quot;:1,&quot;sourcePerimeterSpacing&quot;:0,&quot;targetPerimeterSpacing&quot;:0};" parent="qJhknRZ8q3AHo7k7cmSd-1" vertex="1">
          <mxGeometry x="471" y="116" width="90" height="30" as="geometry" />
        </mxCell>
        <mxCell id="qJhknRZ8q3AHo7k7cmSd-17" value="" style="edgeStyle=entityRelationEdgeStyle;startArrow=none;endArrow=none;segment=10;curved=1;sourcePerimeterSpacing=0;targetPerimeterSpacing=0;rounded=0;" parent="qJhknRZ8q3AHo7k7cmSd-1" source="qJhknRZ8q3AHo7k7cmSd-12" target="qJhknRZ8q3AHo7k7cmSd-18" edge="1">
          <mxGeometry relative="1" as="geometry">
            <mxPoint x="416" y="256" as="sourcePoint" />
          </mxGeometry>
        </mxCell>
        <mxCell id="qJhknRZ8q3AHo7k7cmSd-18" value="过长的函数" style="whiteSpace=wrap;html=1;shape=partialRectangle;top=0;left=0;bottom=1;right=0;points=[[0,1],[1,1]];fillColor=none;align=center;verticalAlign=bottom;routingCenterY=0.5;snapToPoint=1;autosize=1;treeFolding=1;treeMoving=1;newEdgeStyle={&quot;edgeStyle&quot;:&quot;entityRelationEdgeStyle&quot;,&quot;startArrow&quot;:&quot;none&quot;,&quot;endArrow&quot;:&quot;none&quot;,&quot;segment&quot;:10,&quot;curved&quot;:1,&quot;sourcePerimeterSpacing&quot;:0,&quot;targetPerimeterSpacing&quot;:0};" parent="qJhknRZ8q3AHo7k7cmSd-1" vertex="1">
          <mxGeometry x="466" y="236" width="100" height="30" as="geometry" />
        </mxCell>
        <mxCell id="qJhknRZ8q3AHo7k7cmSd-19" value="" style="edgeStyle=entityRelationEdgeStyle;startArrow=none;endArrow=none;segment=10;curved=1;sourcePerimeterSpacing=0;targetPerimeterSpacing=0;rounded=0;" parent="qJhknRZ8q3AHo7k7cmSd-1" source="qJhknRZ8q3AHo7k7cmSd-12" target="qJhknRZ8q3AHo7k7cmSd-20" edge="1">
          <mxGeometry relative="1" as="geometry">
            <mxPoint x="416" y="256" as="sourcePoint" />
          </mxGeometry>
        </mxCell>
        <mxCell id="qJhknRZ8q3AHo7k7cmSd-20" value="过多的参数" style="whiteSpace=wrap;html=1;shape=partialRectangle;top=0;left=0;bottom=1;right=0;points=[[0,1],[1,1]];fillColor=none;align=center;verticalAlign=bottom;routingCenterY=0.5;snapToPoint=1;autosize=1;treeFolding=1;treeMoving=1;newEdgeStyle={&quot;edgeStyle&quot;:&quot;entityRelationEdgeStyle&quot;,&quot;startArrow&quot;:&quot;none&quot;,&quot;endArrow&quot;:&quot;none&quot;,&quot;segment&quot;:10,&quot;curved&quot;:1,&quot;sourcePerimeterSpacing&quot;:0,&quot;targetPerimeterSpacing&quot;:0};" parent="qJhknRZ8q3AHo7k7cmSd-1" vertex="1">
          <mxGeometry x="466" y="196" width="100" height="30" as="geometry" />
        </mxCell>
        <mxCell id="qJhknRZ8q3AHo7k7cmSd-21" value="" style="edgeStyle=entityRelationEdgeStyle;startArrow=none;endArrow=none;segment=10;curved=1;sourcePerimeterSpacing=0;targetPerimeterSpacing=0;rounded=0;" parent="qJhknRZ8q3AHo7k7cmSd-1" source="qJhknRZ8q3AHo7k7cmSd-12" target="qJhknRZ8q3AHo7k7cmSd-22" edge="1">
          <mxGeometry relative="1" as="geometry">
            <mxPoint x="416" y="256" as="sourcePoint" />
          </mxGeometry>
        </mxCell>
        <mxCell id="qJhknRZ8q3AHo7k7cmSd-22" value="过大的类" style="whiteSpace=wrap;html=1;shape=partialRectangle;top=0;left=0;bottom=1;right=0;points=[[0,1],[1,1]];fillColor=none;align=center;verticalAlign=bottom;routingCenterY=0.5;snapToPoint=1;autosize=1;treeFolding=1;treeMoving=1;newEdgeStyle={&quot;edgeStyle&quot;:&quot;entityRelationEdgeStyle&quot;,&quot;startArrow&quot;:&quot;none&quot;,&quot;endArrow&quot;:&quot;none&quot;,&quot;segment&quot;:10,&quot;curved&quot;:1,&quot;sourcePerimeterSpacing&quot;:0,&quot;targetPerimeterSpacing&quot;:0};" parent="qJhknRZ8q3AHo7k7cmSd-1" vertex="1">
          <mxGeometry x="471" y="156" width="90" height="30" as="geometry" />
        </mxCell>
        <mxCell id="qJhknRZ8q3AHo7k7cmSd-27" value="" style="edgeStyle=entityRelationEdgeStyle;startArrow=none;endArrow=none;segment=10;curved=1;sourcePerimeterSpacing=0;targetPerimeterSpacing=0;rounded=0;" parent="qJhknRZ8q3AHo7k7cmSd-1" source="qJhknRZ8q3AHo7k7cmSd-8" target="qJhknRZ8q3AHo7k7cmSd-28" edge="1">
          <mxGeometry relative="1" as="geometry">
            <mxPoint x="260" y="190" as="sourcePoint" />
          </mxGeometry>
        </mxCell>
        <mxCell id="qJhknRZ8q3AHo7k7cmSd-28" value="扩展函数" style="whiteSpace=wrap;html=1;shape=partialRectangle;top=0;left=0;bottom=1;right=0;points=[[0,1],[1,1]];fillColor=none;align=center;verticalAlign=bottom;routingCenterY=0.5;snapToPoint=1;autosize=1;treeFolding=1;treeMoving=1;newEdgeStyle={&quot;edgeStyle&quot;:&quot;entityRelationEdgeStyle&quot;,&quot;startArrow&quot;:&quot;none&quot;,&quot;endArrow&quot;:&quot;none&quot;,&quot;segment&quot;:10,&quot;curved&quot;:1,&quot;sourcePerimeterSpacing&quot;:0,&quot;targetPerimeterSpacing&quot;:0};" parent="qJhknRZ8q3AHo7k7cmSd-1" vertex="1">
          <mxGeometry x="491" y="76" width="90" height="30" as="geometry" />
        </mxCell>
        <mxCell id="qJhknRZ8q3AHo7k7cmSd-31" value="" style="edgeStyle=entityRelationEdgeStyle;startArrow=none;endArrow=none;segment=10;curved=1;sourcePerimeterSpacing=0;targetPerimeterSpacing=0;rounded=0;" parent="qJhknRZ8q3AHo7k7cmSd-1" source="qJhknRZ8q3AHo7k7cmSd-8" target="qJhknRZ8q3AHo7k7cmSd-32" edge="1">
          <mxGeometry relative="1" as="geometry">
            <mxPoint x="260" y="190" as="sourcePoint" />
          </mxGeometry>
        </mxCell>
        <mxCell id="qJhknRZ8q3AHo7k7cmSd-32" value="有哪些重构的方法" style="whiteSpace=wrap;html=1;shape=partialRectangle;top=0;left=0;bottom=1;right=0;points=[[0,1],[1,1]];fillColor=none;align=center;verticalAlign=bottom;routingCenterY=0.5;snapToPoint=1;autosize=1;treeFolding=1;treeMoving=1;newEdgeStyle={&quot;edgeStyle&quot;:&quot;entityRelationEdgeStyle&quot;,&quot;startArrow&quot;:&quot;none&quot;,&quot;endArrow&quot;:&quot;none&quot;,&quot;segment&quot;:10,&quot;curved&quot;:1,&quot;sourcePerimeterSpacing&quot;:0,&quot;targetPerimeterSpacing&quot;:0};" parent="qJhknRZ8q3AHo7k7cmSd-1" vertex="1">
          <mxGeometry x="466" y="116" width="140" height="30" as="geometry" />
        </mxCell>
      </root>
    </mxGraphModel>
  </diagram>
</mxfile>
